<mxfile host="app.diagrams.net" modified="2023-09-18T08:17:14.394Z" agent="Mozilla/5.0 (Windows NT 10.0; Win64; x64) AppleWebKit/537.36 (KHTML, like Gecko) Chrome/116.0.0.0 Safari/537.36" etag="AUauC9cTWk8rq0MhNpAe" version="21.7.5" type="onedrive">
  <diagram name="Page-1" id="k3kCcccJiIvTlB6l5_3U">
    <mxGraphModel grid="1" page="1" gridSize="10" guides="1" tooltips="1" connect="1" arrows="1" fold="1" pageScale="1" pageWidth="827" pageHeight="1169" math="0" shadow="0">
      <root>
        <mxCell id="0" />
        <mxCell id="1" parent="0" />
        <mxCell id="-Se2-UzhSa0PBMBSos5q-1" value="" style="html=1;whiteSpace=wrap;" vertex="1" parent="1">
          <mxGeometry x="240" y="130" width="450" height="1320" as="geometry" />
        </mxCell>
        <mxCell id="-Se2-UzhSa0PBMBSos5q-2" value="&lt;font style=&quot;font-size: 24px;&quot;&gt;Movie store system&lt;/font&gt;" style="text;align=center;fontStyle=1;verticalAlign=middle;spacingLeft=3;spacingRight=3;strokeColor=none;rotatable=0;points=[[0,0.5],[1,0.5]];portConstraint=eastwest;html=1;" vertex="1" parent="1">
          <mxGeometry x="425" y="140" width="80" height="26" as="geometry" />
        </mxCell>
        <mxCell id="-Se2-UzhSa0PBMBSos5q-3" value="&lt;font style=&quot;font-size: 18px;&quot;&gt;Search for a movie&lt;/font&gt;" style="ellipse;whiteSpace=wrap;html=1;" vertex="1" parent="1">
          <mxGeometry x="395" y="550" width="140" height="70" as="geometry" />
        </mxCell>
        <mxCell id="-Se2-UzhSa0PBMBSos5q-4" value="&lt;font style=&quot;font-size: 18px;&quot;&gt;Email invoice&lt;/font&gt;" style="ellipse;whiteSpace=wrap;html=1;" vertex="1" parent="1">
          <mxGeometry x="410" y="1350" width="140" height="70" as="geometry" />
        </mxCell>
        <mxCell id="-Se2-UzhSa0PBMBSos5q-5" value="&lt;font style=&quot;font-size: 18px;&quot;&gt;Give selling privileges&lt;/font&gt;" style="ellipse;whiteSpace=wrap;html=1;" vertex="1" parent="1">
          <mxGeometry x="400" y="920" width="140" height="70" as="geometry" />
        </mxCell>
        <mxCell id="-Se2-UzhSa0PBMBSos5q-6" value="&lt;span style=&quot;margin: 0px; padding: 0px; user-select: text; -webkit-user-drag: none; -webkit-tap-highlight-color: transparent;&quot; data-ccp-parastyle=&quot;Body Text&quot; class=&quot;NormalTextRun SCXW232298303 BCX0&quot;&gt;&lt;font style=&quot;font-size: 18px;&quot;&gt;register to the system&lt;/font&gt;&lt;/span&gt;" style="ellipse;whiteSpace=wrap;html=1;" vertex="1" parent="1">
          <mxGeometry x="405" y="176" width="110" height="70" as="geometry" />
        </mxCell>
        <mxCell id="-Se2-UzhSa0PBMBSos5q-7" value="&lt;font style=&quot;font-size: 18px;&quot;&gt;Finish searching&amp;nbsp;&lt;/font&gt;" style="ellipse;whiteSpace=wrap;html=1;" vertex="1" parent="1">
          <mxGeometry x="400" y="1080" width="150" height="70" as="geometry" />
        </mxCell>
        <mxCell id="-Se2-UzhSa0PBMBSos5q-8" value="&lt;font style=&quot;font-size: 18px;&quot;&gt;Remove from profile&lt;/font&gt;" style="ellipse;whiteSpace=wrap;html=1;" vertex="1" parent="1">
          <mxGeometry x="407" y="1260" width="136" height="70" as="geometry" />
        </mxCell>
        <mxCell id="-Se2-UzhSa0PBMBSos5q-9" value="&lt;font style=&quot;font-size: 18px;&quot;&gt;Purchase movie&lt;/font&gt;" style="ellipse;whiteSpace=wrap;html=1;" vertex="1" parent="1">
          <mxGeometry x="405" y="1169" width="140" height="70" as="geometry" />
        </mxCell>
        <mxCell id="-Se2-UzhSa0PBMBSos5q-10" value="&lt;font style=&quot;font-size: 18px;&quot;&gt;Cancel selling privileges&lt;/font&gt;" style="ellipse;whiteSpace=wrap;html=1;" vertex="1" parent="1">
          <mxGeometry x="400" y="1000" width="140" height="70" as="geometry" />
        </mxCell>
        <mxCell id="-Se2-UzhSa0PBMBSos5q-11" value="&lt;font style=&quot;font-size: 18px;&quot;&gt;Post videos&lt;/font&gt;" style="ellipse;whiteSpace=wrap;html=1;" vertex="1" parent="1">
          <mxGeometry x="395" y="750" width="140" height="70" as="geometry" />
        </mxCell>
        <mxCell id="-Se2-UzhSa0PBMBSos5q-12" value="&lt;font style=&quot;font-size: 18px;&quot;&gt;Add new movies&lt;/font&gt;" style="ellipse;whiteSpace=wrap;html=1;" vertex="1" parent="1">
          <mxGeometry x="400" y="830" width="140" height="70" as="geometry" />
        </mxCell>
        <mxCell id="-Se2-UzhSa0PBMBSos5q-13" value="&lt;font style=&quot;font-size: 18px;&quot;&gt;Post DVDs&lt;/font&gt;" style="ellipse;whiteSpace=wrap;html=1;" vertex="1" parent="1">
          <mxGeometry x="395" y="660" width="140" height="70" as="geometry" />
        </mxCell>
        <mxCell id="-Se2-UzhSa0PBMBSos5q-14" value="&lt;font style=&quot;font-size: 18px;&quot;&gt;Access different database&lt;/font&gt;" style="ellipse;whiteSpace=wrap;html=1;" vertex="1" parent="1">
          <mxGeometry x="394" y="450" width="140" height="90" as="geometry" />
        </mxCell>
        <mxCell id="-Se2-UzhSa0PBMBSos5q-15" value="&lt;font style=&quot;font-size: 18px;&quot;&gt;Access permitted database&amp;nbsp;&lt;/font&gt;" style="ellipse;whiteSpace=wrap;html=1;" vertex="1" parent="1">
          <mxGeometry x="400" y="350" width="140" height="90" as="geometry" />
        </mxCell>
        <mxCell id="-Se2-UzhSa0PBMBSos5q-16" value="&lt;font style=&quot;font-size: 18px;&quot;&gt;&lt;span style=&quot;margin: 0px; padding: 0px; user-select: text; -webkit-user-drag: none; -webkit-tap-highlight-color: transparent;&quot; data-ccp-parastyle=&quot;Body Text&quot; class=&quot;NormalTextRun SCXW6328406 BCX0&quot;&gt;Permit access and search&lt;/span&gt;&lt;/font&gt;" style="ellipse;whiteSpace=wrap;html=1;" vertex="1" parent="1">
          <mxGeometry x="386.25" y="260" width="167.5" height="80" as="geometry" />
        </mxCell>
        <mxCell id="-Se2-UzhSa0PBMBSos5q-19" value="&lt;font style=&quot;font-size: 18px;&quot;&gt;&lt;b&gt;Customers&lt;/b&gt;&lt;/font&gt;" style="shape=umlActor;verticalLabelPosition=bottom;verticalAlign=top;html=1;" vertex="1" parent="1">
          <mxGeometry x="90" y="630" width="30" height="60" as="geometry" />
        </mxCell>
        <mxCell id="-Se2-UzhSa0PBMBSos5q-20" value="&lt;b&gt;&lt;font style=&quot;font-size: 18px;&quot;&gt;Regular Customers&lt;/font&gt;&lt;/b&gt;" style="shape=umlActor;verticalLabelPosition=bottom;verticalAlign=top;html=1;" vertex="1" parent="1">
          <mxGeometry x="90" y="920" width="30" height="60" as="geometry" />
        </mxCell>
        <mxCell id="-Se2-UzhSa0PBMBSos5q-21" value="&lt;font style=&quot;font-size: 18px;&quot;&gt;&lt;b&gt;Administrators&lt;/b&gt;&lt;br&gt;&lt;/font&gt;" style="shape=umlActor;verticalLabelPosition=bottom;verticalAlign=top;html=1;" vertex="1" parent="1">
          <mxGeometry x="750" y="550" width="30" height="60" as="geometry" />
        </mxCell>
        <mxCell id="-Se2-UzhSa0PBMBSos5q-22" value="&lt;font style=&quot;font-size: 18px;&quot;&gt;&lt;b&gt;System users&lt;/b&gt;&lt;/font&gt;" style="shape=umlActor;verticalLabelPosition=bottom;verticalAlign=top;html=1;" vertex="1" parent="1">
          <mxGeometry x="750" y="800" width="30" height="60" as="geometry" />
        </mxCell>
        <mxCell id="-Se2-UzhSa0PBMBSos5q-26" value="&lt;font style=&quot;font-size: 18px;&quot;&gt;&lt;b&gt;Seller&lt;/b&gt;&lt;/font&gt;" style="shape=umlActor;verticalLabelPosition=bottom;verticalAlign=top;html=1;" vertex="1" parent="1">
          <mxGeometry x="750" y="1040" width="30" height="60" as="geometry" />
        </mxCell>
        <mxCell id="-Se2-UzhSa0PBMBSos5q-27" value="" style="endArrow=none;html=1;rounded=0;exitX=1;exitY=0.3333333333333333;exitDx=0;exitDy=0;exitPerimeter=0;entryX=0;entryY=1;entryDx=0;entryDy=0;" edge="1" parent="1" source="-Se2-UzhSa0PBMBSos5q-19" target="-Se2-UzhSa0PBMBSos5q-6">
          <mxGeometry width="50" height="50" relative="1" as="geometry">
            <mxPoint x="420" y="700" as="sourcePoint" />
            <mxPoint x="470" y="650" as="targetPoint" />
          </mxGeometry>
        </mxCell>
        <mxCell id="-Se2-UzhSa0PBMBSos5q-28" value="" style="endArrow=none;html=1;rounded=0;exitX=0;exitY=0.3333333333333333;exitDx=0;exitDy=0;exitPerimeter=0;entryX=1;entryY=1;entryDx=0;entryDy=0;" edge="1" parent="1" source="-Se2-UzhSa0PBMBSos5q-21" target="-Se2-UzhSa0PBMBSos5q-16">
          <mxGeometry width="50" height="50" relative="1" as="geometry">
            <mxPoint x="150" y="555" as="sourcePoint" />
            <mxPoint x="440" y="246" as="targetPoint" />
          </mxGeometry>
        </mxCell>
        <mxCell id="-Se2-UzhSa0PBMBSos5q-29" value="" style="endArrow=none;html=1;rounded=0;exitX=1;exitY=0.3333333333333333;exitDx=0;exitDy=0;exitPerimeter=0;entryX=0;entryY=1;entryDx=0;entryDy=0;" edge="1" parent="1" source="-Se2-UzhSa0PBMBSos5q-19" target="-Se2-UzhSa0PBMBSos5q-15">
          <mxGeometry width="50" height="50" relative="1" as="geometry">
            <mxPoint x="150" y="555" as="sourcePoint" />
            <mxPoint x="435" y="329" as="targetPoint" />
          </mxGeometry>
        </mxCell>
        <mxCell id="-Se2-UzhSa0PBMBSos5q-30" value="" style="endArrow=none;html=1;rounded=0;exitX=0;exitY=0.3333333333333333;exitDx=0;exitDy=0;exitPerimeter=0;entryX=1;entryY=0.5;entryDx=0;entryDy=0;" edge="1" parent="1" source="-Se2-UzhSa0PBMBSos5q-21" target="-Se2-UzhSa0PBMBSos5q-6">
          <mxGeometry width="50" height="50" relative="1" as="geometry">
            <mxPoint x="760" y="570" as="sourcePoint" />
            <mxPoint x="535" y="329" as="targetPoint" />
          </mxGeometry>
        </mxCell>
        <mxCell id="-Se2-UzhSa0PBMBSos5q-31" value="" style="endArrow=block;dashed=1;endFill=0;endSize=12;html=1;rounded=0;exitX=0.5;exitY=0;exitDx=0;exitDy=0;exitPerimeter=0;" edge="1" parent="1" source="-Se2-UzhSa0PBMBSos5q-20">
          <mxGeometry width="160" relative="1" as="geometry">
            <mxPoint x="320" y="630" as="sourcePoint" />
            <mxPoint x="105" y="720" as="targetPoint" />
          </mxGeometry>
        </mxCell>
        <mxCell id="-Se2-UzhSa0PBMBSos5q-32" value="" style="endArrow=none;html=1;rounded=0;exitX=1;exitY=0.3333333333333333;exitDx=0;exitDy=0;exitPerimeter=0;entryX=0;entryY=1;entryDx=0;entryDy=0;" edge="1" parent="1" source="-Se2-UzhSa0PBMBSos5q-20" target="-Se2-UzhSa0PBMBSos5q-14">
          <mxGeometry width="50" height="50" relative="1" as="geometry">
            <mxPoint x="380" y="660" as="sourcePoint" />
            <mxPoint x="430" y="610" as="targetPoint" />
          </mxGeometry>
        </mxCell>
        <mxCell id="-Se2-UzhSa0PBMBSos5q-33" value="" style="endArrow=none;html=1;rounded=0;exitX=1;exitY=0.3333333333333333;exitDx=0;exitDy=0;exitPerimeter=0;entryX=0;entryY=0;entryDx=0;entryDy=0;" edge="1" parent="1" source="-Se2-UzhSa0PBMBSos5q-20" target="-Se2-UzhSa0PBMBSos5q-5">
          <mxGeometry width="50" height="50" relative="1" as="geometry">
            <mxPoint x="150" y="810" as="sourcePoint" />
            <mxPoint x="436" y="520" as="targetPoint" />
          </mxGeometry>
        </mxCell>
        <mxCell id="-Se2-UzhSa0PBMBSos5q-34" value="" style="endArrow=none;html=1;rounded=0;exitX=1;exitY=0.3333333333333333;exitDx=0;exitDy=0;exitPerimeter=0;entryX=0;entryY=0.5;entryDx=0;entryDy=0;" edge="1" parent="1" source="-Se2-UzhSa0PBMBSos5q-19" target="-Se2-UzhSa0PBMBSos5q-3">
          <mxGeometry width="50" height="50" relative="1" as="geometry">
            <mxPoint x="150" y="810" as="sourcePoint" />
            <mxPoint x="440" y="610" as="targetPoint" />
          </mxGeometry>
        </mxCell>
        <mxCell id="-Se2-UzhSa0PBMBSos5q-36" value="" style="endArrow=none;html=1;rounded=0;exitX=0;exitY=0.3333333333333333;exitDx=0;exitDy=0;exitPerimeter=0;entryX=1;entryY=0.5;entryDx=0;entryDy=0;" edge="1" parent="1" source="-Se2-UzhSa0PBMBSos5q-22" target="-Se2-UzhSa0PBMBSos5q-13">
          <mxGeometry width="50" height="50" relative="1" as="geometry">
            <mxPoint x="150" y="810" as="sourcePoint" />
            <mxPoint x="440" y="610" as="targetPoint" />
          </mxGeometry>
        </mxCell>
        <mxCell id="-Se2-UzhSa0PBMBSos5q-37" value="" style="endArrow=none;html=1;rounded=0;exitX=0;exitY=0.3333333333333333;exitDx=0;exitDy=0;exitPerimeter=0;entryX=1;entryY=0.5;entryDx=0;entryDy=0;" edge="1" parent="1" source="-Se2-UzhSa0PBMBSos5q-22" target="-Se2-UzhSa0PBMBSos5q-11">
          <mxGeometry width="50" height="50" relative="1" as="geometry">
            <mxPoint x="770" y="900" as="sourcePoint" />
            <mxPoint x="554" y="705" as="targetPoint" />
          </mxGeometry>
        </mxCell>
        <mxCell id="-Se2-UzhSa0PBMBSos5q-38" value="" style="endArrow=none;html=1;rounded=0;exitX=1;exitY=0.3333333333333333;exitDx=0;exitDy=0;exitPerimeter=0;entryX=0;entryY=1;entryDx=0;entryDy=0;" edge="1" parent="1" source="-Se2-UzhSa0PBMBSos5q-20" target="-Se2-UzhSa0PBMBSos5q-3">
          <mxGeometry width="50" height="50" relative="1" as="geometry">
            <mxPoint x="150" y="810" as="sourcePoint" />
            <mxPoint x="436" y="520" as="targetPoint" />
          </mxGeometry>
        </mxCell>
        <mxCell id="-Se2-UzhSa0PBMBSos5q-39" value="" style="endArrow=none;html=1;rounded=0;exitX=0;exitY=0.3333333333333333;exitDx=0;exitDy=0;exitPerimeter=0;entryX=1;entryY=0;entryDx=0;entryDy=0;" edge="1" parent="1" source="-Se2-UzhSa0PBMBSos5q-21" target="-Se2-UzhSa0PBMBSos5q-5">
          <mxGeometry width="50" height="50" relative="1" as="geometry">
            <mxPoint x="760" y="570" as="sourcePoint" />
            <mxPoint x="534" y="330" as="targetPoint" />
          </mxGeometry>
        </mxCell>
        <mxCell id="-Se2-UzhSa0PBMBSos5q-41" value="" style="endArrow=none;html=1;rounded=0;exitX=0;exitY=0.3333333333333333;exitDx=0;exitDy=0;exitPerimeter=0;entryX=1;entryY=0.5;entryDx=0;entryDy=0;" edge="1" parent="1" source="-Se2-UzhSa0PBMBSos5q-22" target="-Se2-UzhSa0PBMBSos5q-12">
          <mxGeometry width="50" height="50" relative="1" as="geometry">
            <mxPoint x="760" y="900" as="sourcePoint" />
            <mxPoint x="545" y="795" as="targetPoint" />
          </mxGeometry>
        </mxCell>
        <mxCell id="-Se2-UzhSa0PBMBSos5q-42" value="" style="endArrow=none;html=1;rounded=0;exitX=0;exitY=0.3333333333333333;exitDx=0;exitDy=0;exitPerimeter=0;entryX=1;entryY=0.5;entryDx=0;entryDy=0;" edge="1" parent="1" source="-Se2-UzhSa0PBMBSos5q-21" target="-Se2-UzhSa0PBMBSos5q-10">
          <mxGeometry width="50" height="50" relative="1" as="geometry">
            <mxPoint x="760" y="590" as="sourcePoint" />
            <mxPoint x="529" y="940" as="targetPoint" />
          </mxGeometry>
        </mxCell>
        <mxCell id="-Se2-UzhSa0PBMBSos5q-43" value="" style="endArrow=none;html=1;rounded=0;exitX=1;exitY=0.3333333333333333;exitDx=0;exitDy=0;exitPerimeter=0;entryX=0;entryY=0;entryDx=0;entryDy=0;" edge="1" parent="1" source="-Se2-UzhSa0PBMBSos5q-19" target="-Se2-UzhSa0PBMBSos5q-7">
          <mxGeometry width="50" height="50" relative="1" as="geometry">
            <mxPoint x="150" y="610" as="sourcePoint" />
            <mxPoint x="405" y="595" as="targetPoint" />
          </mxGeometry>
        </mxCell>
        <mxCell id="-Se2-UzhSa0PBMBSos5q-44" value="" style="endArrow=none;html=1;rounded=0;exitX=1;exitY=0.3333333333333333;exitDx=0;exitDy=0;exitPerimeter=0;entryX=0;entryY=0;entryDx=0;entryDy=0;" edge="1" parent="1" source="-Se2-UzhSa0PBMBSos5q-20" target="-Se2-UzhSa0PBMBSos5q-10">
          <mxGeometry width="50" height="50" relative="1" as="geometry">
            <mxPoint x="150" y="900" as="sourcePoint" />
            <mxPoint x="430" y="941" as="targetPoint" />
          </mxGeometry>
        </mxCell>
        <mxCell id="-Se2-UzhSa0PBMBSos5q-47" value="" style="endArrow=none;html=1;rounded=0;exitX=1;exitY=0.3333333333333333;exitDx=0;exitDy=0;exitPerimeter=0;entryX=0;entryY=0;entryDx=0;entryDy=0;" edge="1" parent="1" source="-Se2-UzhSa0PBMBSos5q-19" target="-Se2-UzhSa0PBMBSos5q-9">
          <mxGeometry width="50" height="50" relative="1" as="geometry">
            <mxPoint x="150" y="900" as="sourcePoint" />
            <mxPoint x="-163.33333333333334" y="1140" as="targetPoint" />
          </mxGeometry>
        </mxCell>
        <mxCell id="-Se2-UzhSa0PBMBSos5q-48" value="" style="endArrow=none;html=1;rounded=0;exitX=1;exitY=0.5;exitDx=0;exitDy=0;entryX=0;entryY=0.3333333333333333;entryDx=0;entryDy=0;entryPerimeter=0;" edge="1" parent="1" source="-Se2-UzhSa0PBMBSos5q-9" target="-Se2-UzhSa0PBMBSos5q-26">
          <mxGeometry width="50" height="50" relative="1" as="geometry">
            <mxPoint x="540" y="1090" as="sourcePoint" />
            <mxPoint x="590" y="1040" as="targetPoint" />
          </mxGeometry>
        </mxCell>
        <mxCell id="-Se2-UzhSa0PBMBSos5q-49" value="" style="endArrow=none;html=1;rounded=0;exitX=1;exitY=0.5;exitDx=0;exitDy=0;entryX=0;entryY=0.3333333333333333;entryDx=0;entryDy=0;entryPerimeter=0;" edge="1" parent="1" source="-Se2-UzhSa0PBMBSos5q-8" target="-Se2-UzhSa0PBMBSos5q-21">
          <mxGeometry width="50" height="50" relative="1" as="geometry">
            <mxPoint x="555" y="1214" as="sourcePoint" />
            <mxPoint x="760" y="1209" as="targetPoint" />
          </mxGeometry>
        </mxCell>
        <mxCell id="-Se2-UzhSa0PBMBSos5q-50" value="" style="endArrow=none;html=1;rounded=0;exitX=1;exitY=0.5;exitDx=0;exitDy=0;entryX=0;entryY=0.3333333333333333;entryDx=0;entryDy=0;entryPerimeter=0;" edge="1" parent="1" source="-Se2-UzhSa0PBMBSos5q-4" target="-Se2-UzhSa0PBMBSos5q-26">
          <mxGeometry width="50" height="50" relative="1" as="geometry">
            <mxPoint x="555" y="1214" as="sourcePoint" />
            <mxPoint x="760" y="1209" as="targetPoint" />
          </mxGeometry>
        </mxCell>
        <mxCell id="-Se2-UzhSa0PBMBSos5q-51" value="" style="endArrow=none;html=1;rounded=0;exitX=1;exitY=0.3333333333333333;exitDx=0;exitDy=0;exitPerimeter=0;entryX=0;entryY=0.5;entryDx=0;entryDy=0;" edge="1" parent="1" source="-Se2-UzhSa0PBMBSos5q-19" target="-Se2-UzhSa0PBMBSos5q-8">
          <mxGeometry width="50" height="50" relative="1" as="geometry">
            <mxPoint x="130" y="650" as="sourcePoint" />
            <mxPoint x="435" y="1190" as="targetPoint" />
          </mxGeometry>
        </mxCell>
        <mxCell id="-Se2-UzhSa0PBMBSos5q-54" value="" style="endArrow=none;html=1;rounded=0;exitX=1;exitY=0.3333333333333333;exitDx=0;exitDy=0;exitPerimeter=0;entryX=0;entryY=0.5;entryDx=0;entryDy=0;" edge="1" parent="1" source="-Se2-UzhSa0PBMBSos5q-19" target="-Se2-UzhSa0PBMBSos5q-4">
          <mxGeometry width="50" height="50" relative="1" as="geometry">
            <mxPoint x="130" y="950" as="sourcePoint" />
            <mxPoint x="415" y="1395" as="targetPoint" />
          </mxGeometry>
        </mxCell>
        <mxCell id="-Se2-UzhSa0PBMBSos5q-55" value="" style="endArrow=none;html=1;rounded=0;exitX=1;exitY=0.3333333333333333;exitDx=0;exitDy=0;exitPerimeter=0;entryX=0;entryY=1;entryDx=0;entryDy=0;" edge="1" parent="1" source="-Se2-UzhSa0PBMBSos5q-19" target="-Se2-UzhSa0PBMBSos5q-16">
          <mxGeometry width="50" height="50" relative="1" as="geometry">
            <mxPoint x="130" y="650" as="sourcePoint" />
            <mxPoint x="430" y="419" as="targetPoint" />
          </mxGeometry>
        </mxCell>
      </root>
    </mxGraphModel>
  </diagram>
</mxfile>
